# xmcd
#
# Track frame offsets: 
#        150
#        10287
#        19425
#        29835
#        42182
#        56450
#        69307
#        81555
#        91917
#        106710
#        118620
#        132122
#        144555
#        157980
#        170032
#        184575
#        196840
#        208440
#        218325
#        232647
#        243870
#
# Disc length: 3411 seconds
#
# Revision: 1
# Processed by: cddbd v1.5.2PL0 Copyright (c) Steve Scherf et al.
# Submitted via: ExactAudioCopy v0.95b3
#
DISCID=1a0d5115
DTITLE=Dean Martin - Memories are made this
DYEAR=1999
DGENRE=Country
TTITLE0=Memories are made of this
TTITLE1=The birds and the bees
TTITLE2=The glory of love
TTITLE3=Everybody loves somebody
TTITLE4=That`s amore
TTITLE5=The door is still open (to my heart)
TTITLE6=Little old wine drinker me
TTITLE7=Old yellow line
TTITLE8=(Open up the door) Let the good times in
TTITLE9=Houston
TTITLE10=Your`ve still got a place in my hart
TTITLE11=Volare
TTITLE12=Crying time
TTITLE13=I can`t help (if I'm still in love with you)
TTITLE14=Release me
TTITLE15=Take these chains from my heart
TTITLE16=I`ll hold you in my heart
TTITLE17=Invisible tears
TTITLE18=My heart cries for you
TTITLE19=Born to lose
TTITLE20=Things
EXTD=
EXTT0=
EXTT1=
EXTT2=
EXTT3=
EXTT4=
EXTT5=
EXTT6=
EXTT7=
EXTT8=
EXTT9=
EXTT10=
EXTT11=
EXTT12=
EXTT13=
EXTT14=
EXTT15=
EXTT16=
EXTT17=
EXTT18=
EXTT19=
EXTT20=
PLAYORDER=
